<?xml version="1.0" encoding="utf-8"?>
<!-- Generator: Adobe Illustrator 16.0.0, SVG Export Plug-In . SVG Version: 6.00 Build 0)  -->
<!DOCTYPE svg PUBLIC "-//W3C//DTD SVG 1.1//EN" "http://www.w3.org/Graphics/SVG/1.1/DTD/svg11.dtd">
<svg version="1.1" id="Layer_1" xmlns="http://www.w3.org/2000/svg" xmlns:xlink="http://www.w3.org/1999/xlink" x="0px" y="0px"
	 width="1854.3px" height="1400px" viewBox="0 0 1854.3 1400" enable-background="new 0 0 1854.3 1400" xml:space="preserve">
<g>
	<rect x="0" fill="#FFFFFF" width="1854.3" height="1400"/>
	<path fill="#F1F2F2" d="M1578.5,1128.4c0,48-38.9,86.8-86.8,86.8H199.4c-48,0-86.8-38.9-86.8-86.8v-113.3c0-48,38.9-86.8,86.8-86.8
		h1292.3c48,0,86.8,38.9,86.8,86.8V1128.4z"/>
	<path fill="#F1F2F2" d="M565.7,318c0,129.6-105.1,234.7-234.7,234.7C201.3,552.7,96.3,447.7,96.3,318S201.3,83.4,331,83.4
		C460.6,83.4,565.7,188.4,565.7,318z"/>
	<path fill="#F1F2F2" d="M1105.5,356c0,129.6-105.1,234.7-234.7,234.7c-129.6,0-234.7-105.1-234.7-234.7
		c0-129.6,105.1-234.7,234.7-234.7C1000.4,121.3,1105.5,226.3,1105.5,356z"/>
	<path fill="#F1F2F2" d="M1609.6,338c0,119.7-97,216.7-216.7,216.7c-119.7,0-216.7-97-216.7-216.7c0-119.7,97-216.7,216.7-216.7
		C1512.6,121.3,1609.6,218.3,1609.6,338z"/>
	<path fill="#F1F2F2" d="M1826.5,1126.1c0,129.6-105.1,234.7-234.7,234.7c-129.6,0-234.7-105.1-234.7-234.7
		c0-129.6,105.1-234.7,234.7-234.7C1721.5,891.4,1826.5,996.4,1826.5,1126.1z"/>
	<g>
		<g>
			<g>
				<path fill="#FFD553" d="M1147.1,441.9c-28.6-8.2-50.7-30.2-59.2-58.9c-6.5-22-4-45.4,6.9-65.5c9.4-17.3,24.6-31.1,42.7-38.7
					l6.7-2.9l-2.6-6.9c-9.9-25.4-23.2-49.5-39.8-71.9l-4.5-6l-6.1,4.4c-8.2,6-17.1,10.4-26.6,13.2c-45.9,13.4-94.1-13-107.6-58.9
					c-4.6-15.9-4.6-32.8,0-48.7l2.1-7.1l-7.1-2.2c-26.2-8.1-53.3-12.6-80.7-13.4l-7.4-0.2l-0.4,7.4c-0.7,12.9-4.3,25.5-10.4,36.9
					c-11.1,20.5-29.4,35.3-51.8,41.9c-35.2,10.3-73.3-2.8-94.8-32.7l-4.3-6l-6.1,4.1C674,145,653.7,163.3,636,184.2l-4.8,5.7
					l5.7,4.9c12.7,11,21.9,25.3,26.6,41.3c6.5,22.1,4.1,45.4-7,65.7c-11.1,20.5-29.5,35.4-51.8,41.9c-9.8,2.8-20,4-30.3,3.3
					l-7.5-0.5l-0.5,7.5c-2,27.5-0.2,55.2,5.2,82.3l1.5,7.2l7.3-1.3c43.5-7.7,85.7,18.5,98.2,60.9c6.4,22.1,3.9,45.4-7.1,65.7
					c-3.1,5.6-6.7,11-11,15.8l-4.8,5.5l5.4,5c19.6,18.1,41.8,33.7,66.2,46.3l6.5,3.4l3.6-6.4c11.3-20.2,29.6-34.9,51.5-41.3
					c45.8-13.5,94.2,12.9,107.8,58.8c0.8,3,1.5,6.1,2.1,9.3l1.3,7.3l7.3-1.1c14.3-2.2,27.5-5.1,40.3-8.8
					c12.9-3.8,25.9-8.6,38.7-14.4l6.7-3l-2.8-6.8c-1.2-2.8-2.4-5.9-3.3-9c-6.5-22.1-4-45.4,7-65.7c11.1-20.5,29.5-35.4,51.8-41.9
					c22.1-6.6,45.5-4.1,65.6,7l6.5,3.5l3.7-6.4c13.6-23.4,24-48.8,30.8-74.8l1.9-7.2L1147.1,441.9z M977,440.2
					c-33.6,62-111,85-173,51.4c-62-33.6-85-111-51.4-173c33.6-61.9,111-85,173-51.4C987.6,300.8,1010.6,378.3,977,440.2z"/>
			</g>
		</g>
		<g>
			<path fill="#4E97C4" d="M1566,398.6c-19.6-5.6-34.7-20.7-40.4-40.2c-4.4-15.1-2.7-31,4.7-44.8c6.4-11.8,16.8-21.2,29.2-26.4
				l4.6-1.9l-1.8-4.7c-6.7-17.3-15.9-33.9-27.2-49.1l-3.1-4.1l-4.2,3c-5.6,4.1-11.7,7.1-18.2,9c-31.3,9.2-64.3-8.9-73.5-40.2
				c-3.1-10.8-3.1-22.4,0-33.3l1.4-4.8l-4.8-1.5c-17.9-5.6-36.5-8.6-55.2-9.2l-5-0.1l-0.3,5.1c-0.5,8.8-2.9,17.4-7.1,25.2
				c-7.6,14-20.1,24.1-35.4,28.6c-24,7-50.1-1.9-64.8-22.3l-2.9-4.1l-4.2,2.8c-15.3,10.3-29.1,22.8-41.1,37.1l-3.3,3.9l3.9,3.3
				c8.7,7.5,15,17.3,18.2,28.2c4.4,15.1,2.8,31-4.8,44.9c-7.5,13.9-20.2,24.2-35.4,28.6c-6.7,1.9-13.7,2.7-20.7,2.3l-5.1-0.3
				l-0.3,5.1c-1.4,18.8-0.2,37.7,3.5,56.2l1,4.9l5-0.9c29.7-5.2,58.6,12.7,67.1,41.6c4.4,15.1,2.6,31-4.9,44.9
				c-2.1,3.9-4.6,7.5-7.5,10.8l-3.3,3.8l3.7,3.4c13.3,12.4,28.5,23,45.2,31.6l4.5,2.3l2.4-4.4c7.7-13.8,20.2-23.9,35.2-28.2
				c31.3-9.2,64.4,8.8,73.6,40.2c0.6,2.1,1,4.2,1.4,6.4l0.8,5l5-0.8c9.8-1.5,18.8-3.5,27.5-6c8.8-2.6,17.7-5.9,26.5-9.8l4.6-2
				l-1.9-4.7c-0.8-1.9-1.6-4-2.3-6.2c-4.4-15.1-2.7-31,4.8-44.9c7.6-14,20.1-24.2,35.4-28.6c15.1-4.5,31.1-2.8,44.8,4.8l4.4,2.4
				l2.5-4.4c9.3-16,16.4-33.3,21.1-51.1l1.3-4.9L1566,398.6z M1441.9,393.2c-20.6,38-68.1,52.1-106.1,31.5
				c-38-20.6-52.1-68.1-31.5-106.1c20.6-38,68.1-52.1,106.1-31.5C1448.3,307.7,1462.5,355.2,1441.9,393.2z"/>
		</g>
		<g>
			<path fill="#FFFFFF" d="M1373,457.4c-16.7,0-33.4-4.2-48.2-12.3c-49.1-26.6-67.5-88.3-40.9-137.4c17.7-32.8,51.9-53.1,89.2-53.1
				c16.7,0,33.4,4.2,48.2,12.3c49.1,26.6,67.5,88.3,40.9,137.4C1444.5,437,1410.3,457.4,1373,457.4z M1373.2,258.2
				c-36,0-68.9,19.6-86,51.2c-25.7,47.4-8,106.9,39.4,132.5c14.3,7.7,30.3,11.8,46.5,11.8c36,0,68.9-19.6,86.1-51.2
				c25.7-47.4,8-106.9-39.4-132.5C1405.4,262.3,1389.3,258.2,1373.2,258.2z"/>
		</g>
		<g>
			<path fill="#FFFFFF" d="M1490.4,419.5l-3.2-1.7c13.8-25.4,18.6-54,14-82.5l3.6-0.6C1509.6,364.1,1504.6,393.4,1490.4,419.5z"/>
		</g>
		<g>
			<path fill="#FFFFFF" d="M1485.6,291.1c-11.9-20.8-29.5-37.9-50.7-49.3l1.7-3.2c21.8,11.8,39.8,29.3,52.1,50.7L1485.6,291.1z"/>
		</g>
		<g>
			<path fill="#FFFFFF" d="M864.7,540.7c-26.6,0-53.1-6.7-76.7-19.5c-78.2-42.4-107.3-140.5-65-218.6c28.2-52.1,82.6-84.5,142-84.5
				c26.6,0,53.1,6.7,76.7,19.5c78.2,42.4,107.3,140.4,65,218.6C978.4,508.4,924,540.7,864.7,540.7z M865,221.8
				c-58,0-111.2,31.6-138.8,82.6c-41.4,76.4-12.9,172.3,63.5,213.7c23,12.5,48.9,19,74.9,19c58,0,111.2-31.6,138.8-82.6
				c41.4-76.4,12.9-172.3-63.5-213.7C916.9,228.4,891,221.8,865,221.8z"/>
		</g>
		<g>
			<path fill="#FFFFFF" d="M957.4,208.5c-41.1-22.3-88.8-29-134.4-18.9l-0.8-3.5c46.4-10.2,95-3.4,136.9,19.3L957.4,208.5z"/>
		</g>
		<g>
			<path fill="#FFFFFF" d="M693.9,286.8l-3.2-1.7c17.6-32.5,43.8-59.3,75.8-77.6l1.8,3.1C736.9,228.6,711.2,254.9,693.9,286.8z"/>
		</g>
		<g>
			<path fill="#FFFFFF" d="M896.1,575l-0.6-3.6c60.1-9.7,111.2-45.9,140.2-99.3l3.2,1.7C1009.4,528.2,957.4,565.1,896.1,575z"/>
		</g>
	</g>
	<path fill="#58595B" d="M1249.7,978.7V436.2c0-33.6-27.5-60.8-61.5-60.8H297.8c-34,0-61.5,27.2-61.5,60.8v542.5H1249.7z"/>
	<g>
		<path fill="#D1D3D4" d="M192.8,1070h1100.4c17.7,0,33.7-7.5,44.9-19.4H147.9C159.1,1062.5,175,1070,192.8,1070z"/>
		<path fill="#FFFFFF" d="M1354.6,978.7H131.4v30.4c0,16,6.3,30.6,16.6,41.5h1190.2c10.2-10.9,16.6-25.4,16.6-41.5V978.7z"/>
	</g>
	<rect x="605.8" y="978.7" fill="#D1D3D4" width="274.4" height="23.7"/>
	<g>
		<polygon fill="#6DDFFF" points="287.4,430.3 287.4,940.7 540.1,940.7 964.7,430.3 		"/>
		<polygon fill="#69D4F5" points="1198.6,430.3 964.7,430.3 540.1,940.7 1198.6,940.7 		"/>
	</g>
	<g>
		<path fill="#58595B" d="M1730.3,460.9c0-10-8.1-18.1-18.1-18.1H1471c-10,0-18.1,8.1-18.1,18.1v34h277.4V460.9z"/>
		<rect x="1452.9" y="494.9" fill="#6DDFFF" width="277.4" height="360.6"/>
		<path fill="#58595B" d="M1452.9,855.5v54.7c0,10,8.1,18.1,18.1,18.1h241.2c10,0,18.1-8.1,18.1-18.1v-54.7H1452.9z"/>
	</g>
	<path fill="#404142" d="M1635.4,886.9c0,6.4-5.2,11.6-11.6,11.6h-64.5c-6.4,0-11.6-5.2-11.6-11.6l0,0c0-6.4,5.2-11.6,11.6-11.6
		h64.5C1630.2,875.3,1635.4,880.5,1635.4,886.9L1635.4,886.9z"/>
	<polygon fill="#007491" points="833.4,734.3 364.6,430.3 287.4,430.3 287.4,628.8 721.6,910.4 	"/>
	<g>
		<polygon fill="#595959" points="1566.3,494.9 1188.4,734.3 1300.2,910.4 1730.3,637.9 1730.3,494.9 		"/>
	</g>
	<g>
		<path fill="#F7B690" d="M1177,786.7c-45.2,40-87.8,6.5-87.8,6.5c-63.8-36.2-101.3,2.4-101.3,2.4l-99,94.1
			c-13,12.3-13.5,32.9-1.1,45.9c6.4,6.7,14.9,10.1,23.5,10.1c3.7,0,7.4-0.7,10.9-2l228.1,62.8l96.1-110.5L1177,786.7z"/>
		<path fill="#F4A086" d="M1168.5,989.4l-144.8-138.3l-12.4-69.3c-17.3-6-43.9-8-77.9,11.3c0,0-42.6,33.5-87.8-6.5L776.2,896
			l105.7,121.6l32.8,48.7c1.3,3.1,96.1,8.3,98.6,10.7l38.4,5.1l16.1,15.7c4.8,4.6,10.9,6.8,17.1,6.8c6.6,0,13.1-2.6,18-7.7
			c9.4-9.9,9-25.6-0.9-35l1.4,1.3c4.8,4.6,10.9,6.8,17.1,6.8c6.6,0,13.1-2.6,18-7.7c9-9.5,9-24.3,0.2-33.8c3.9,2.4,8.3,3.6,12.8,3.6
			c6.6,0,13.1-2.6,18-7.7C1178.8,1014.5,1178.4,998.8,1168.5,989.4z"/>
		<polygon fill="#FFFFFF" points="765,913.6 732.6,893 822.2,751.8 854.7,772.4 		"/>
		<g>
			<path fill="#FFFFFF" d="M1032.6,842.7l-99,94.1c-6.3,6-14.3,8.9-22.3,8.9c-8.6,0-17.2-3.4-23.5-10.1c-12.4-13-11.8-33.5,1.1-45.9
				l99-94.1c0,0,12-10.7,23.4-13.7"/>
		</g>
		<g>
			<path fill="#F7B690" d="M1032.6,842.7l-99,94.1c-6.3,6-14.3,8.9-22.3,8.9c-8.6,0-17.2-3.4-23.5-10.1c-12.4-13-11.8-33.5,1.1-45.9
				l99-94.1c0,0,12-10.7,23.4-13.7"/>
		</g>
		<g>
			<path fill="none" d="M1023.7,851.2l144.8,138.3c9.9,9.4,10.3,25.1,0.9,35c-4.9,5.1-11.4,7.7-18,7.7c-6.1,0-12.3-2.3-17.1-6.8
				l-75.6-71.9"/>
		</g>
		<g>
			<path fill="none" d="M1027.4,991.4l75.6,71.9c4.8,4.6,10.9,6.8,17.1,6.8c6.5,0,13.1-2.6,18-7.7c9.4-9.9,9-25.6-0.9-35l-78.4-73.9
				"/>
		</g>
		<path fill="#F7B690" d="M1009.9,789c0,0,6.3-2.4,12.4-3.7l5.2,39l-11.3-14.1L1009.9,789z"/>
		<path fill="#FFFFFF" d="M764.9,744.6c0,12.1-9.8,21.9-21.9,21.9c-12.1,0-21.9-9.8-21.9-21.9c0-12.1,9.8-21.9,21.9-21.9
			C755.1,722.7,764.9,732.5,764.9,744.6z"/>
		<polygon fill="#FFFFFF" points="1256.8,913.6 1289.2,893 1199.6,751.8 1167.1,772.4 		"/>
		<path fill="#FFFFFF" d="M1256.9,744.6c0,12.1,9.8,21.9,21.9,21.9c12.1,0,21.9-9.8,21.9-21.9c0-12.1-9.8-21.9-21.9-21.9
			C1266.7,722.7,1256.9,732.5,1256.9,744.6z"/>
		<polygon fill="#DB8F78" points="1138.6,1028.6 1058.8,953.5 1061.4,950.1 1147.5,1031.7 		"/>
		<polygon fill="#DB8F78" points="1107,1066.5 1027.1,991.4 1029.7,988.1 1115.8,1069.7 		"/>
		<polygon fill="#DB8F78" points="1071.7,1101.5 991.9,1026.4 994.5,1023.1 1080.6,1104.7 		"/>
		<polygon fill="#E8AC87" points="1237.3,906.5 1245.9,896.5 1176.2,787.4 1165.8,795.2 		"/>
		<polygon fill="#E0927B" points="776.2,896 783.7,904.7 854.7,793.8 845.6,786.7 		"/>
		<polygon fill="#E0927B" points="929.5,940.3 1032.6,859.7 1023.7,851.7 		"/>
		<polygon fill="#E8AC87" points="1166.4,988.1 1023.7,851.7 1032.6,842.7 		"/>
		<g>
			<path fill="#DB8F78" d="M1065.8,1092.9c9.9-9.4,10.3-25.1,0.9-35c-9.4-9.9-25.1-10.3-35-0.9l-17.6,17.5
				c7.5-9.5,7.1-23.3-1.5-32.4c-9.4-9.9-25.1-10.3-35-0.9l-14.7,14.7c6.1-9.4,5.2-22-2.8-30.5c-9.4-9.9-25.1-10.3-35-0.9l-13.2,12.7
				c7.5-9.5,7.1-23.3-1.5-32.4c-9.4-9.9-25.1-10.3-35-0.9l-20.8,20.1l205.2,66l4.8,4.4L1065.8,1092.9z"/>
		</g>
		<g>
			<path fill="#F7B690" d="M845.9,1085.6c-6.6,0-13.1-2.6-18-7.7c-9.4-9.9-9-25.6,0.9-35l40.4-38.9c9.9-9.4,25.6-9.1,35,0.9
				c9.4,9.9,9,25.6-0.9,35l-40.4,38.9C858.1,1083.3,852,1085.6,845.9,1085.6z"/>
		</g>
		<g>
			<path fill="#F7B690" d="M895.6,1106.1c-6.6,0-13.1-2.6-18-7.7c-9.4-9.9-9-25.6,0.9-35l40.4-38.9c9.9-9.4,25.6-9,35,0.9
				c9.4,9.9,9,25.6-0.9,35l-40.4,38.9C907.9,1103.8,901.7,1106.1,895.6,1106.1z"/>
		</g>
		<g>
			<path fill="#F7B690" d="M955.6,1116.9c-6.6,0-13.1-2.6-18-7.7c-9.4-9.9-9-25.6,0.9-35l32.9-33c9.9-9.4,25.6-9,35,0.9
				c9.4,9.9,9.1,25.6-0.9,35l-32.9,33C967.9,1114.7,961.8,1116.9,955.6,1116.9z"/>
		</g>
		<g>
			<path fill="#F7B690" d="M1012.4,1129.8c-6.6,0-13.1-2.6-18-7.7c-9.4-9.9-9-25.6,0.9-35l30.3-30.1c9.9-9.4,25.6-9,35,0.9
				c9.4,9.9,9.1,25.6-0.9,35l-30.3,30.1C1024.7,1127.5,1018.5,1129.8,1012.4,1129.8z"/>
		</g>
	</g>
	<g>
		<g>
			<path fill="#E7E8E8" d="M1546.7,1024.1c21.2,3.1,41.6,12.8,57.9,29.1l90.2,90.2c40.2,40.2,40.2,105.5,0,145.7
				c-16.3,16.3-36.7,26-57.9,29.1c31.1,4.6,63.9-5.1,87.8-29.1c40.2-40.2,40.2-105.4,0-145.7l-90.2-90.2
				C1610.6,1029.3,1577.8,1019.6,1546.7,1024.1z"/>
		</g>
		<g>
			<path fill="#FFFFFF" d="M1694.8,1143.4l-90.2-90.2c-16.3-16.3-36.7-26-57.9-29.1c-21.2,3.1-41.6,12.8-57.9,29.1
				c-40.2,40.2-40.2,105.5,0,145.7l90.2,90.2c16.3,16.3,36.7,26,57.8,29.1c21.2-3.1,41.6-12.8,57.9-29.1
				C1735,1248.9,1735,1183.6,1694.8,1143.4z"/>
		</g>
		<g>
			<polygon fill="#F1F2F2" points="1637.3,1056 1491.7,1201.7 1486.1,1196.1 1631.8,1050.5 			"/>
		</g>
		<g>
			<path fill="#F1F2F2" d="M1574.2,1117.8c5.7,5.7,5.7,15,0,20.8l0,0c-5.7,5.7-15,5.7-20.8,0l-34.1-34.1c-5.7-5.7-5.7-15,0-20.8l0,0
				c5.7-5.7,15-5.7,20.8,0L1574.2,1117.8z"/>
		</g>
	</g>
	<g>
		<path fill="#4E97C4" d="M291.3,1294.7c-14,0-28.2-1.9-42.2-5.5c-2.9-0.8-4.6-3.7-3.9-6.6c0.8-2.9,3.7-4.6,6.6-3.9
			c20.8,5.4,42.2,6.6,62.3,3.3c3-0.5,5.8,1.5,6.2,4.5c0.5,3-1.5,5.8-4.5,6.2C307.9,1294,299.6,1294.7,291.3,1294.7z M380.1,1263.3
			c-1.5,0-3.1-0.7-4.2-1.9c-1.9-2.3-1.6-5.7,0.7-7.6c8.6-7.2,16.4-15.7,23.2-25.2c5.2-7.2,9.7-15.5,13.4-24.6c1.1-2.8,4.3-4.1,7.1-3
			c2.8,1.1,4.1,4.3,3,7.1c-4,9.9-8.9,18.9-14.6,26.8c-7.3,10.3-15.8,19.5-25.1,27.3C382.6,1262.9,381.3,1263.3,380.1,1263.3z
			 M186.4,1257c-1.2,0-2.4-0.4-3.4-1.2c-9.3-7.5-17.8-15.9-25.3-25.1c-6.3-8.2-12.2-16.8-17.8-25.6c-1.6-2.5-0.8-5.9,1.7-7.5
			c2.5-1.6,5.9-0.8,7.5,1.7c5.4,8.6,11.2,16.9,17.1,24.7c6.9,8.4,14.9,16.3,23.6,23.4c2.3,1.9,2.7,5.3,0.8,7.6
			C189.5,1256.3,187.9,1257,186.4,1257z M111.9,1143.1c-2.2,0-4.2-1.3-5-3.4c-7.9-20-14.6-41.1-19.8-62.8c-0.7-2.9,1.1-5.8,4-6.5
			c2.9-0.7,5.8,1.1,6.5,4c5.1,21.2,11.6,41.8,19.3,61.3c1.1,2.8-0.3,5.9-3,7C113.3,1143,112.6,1143.1,111.9,1143.1z M429.6,1140.4
			c-3,0-5.4-2.4-5.4-5.4v-65.1c0-3,2.4-5.4,5.4-5.4c3,0,5.4,2.4,5.4,5.4v65.1C435,1138,432.6,1140.4,429.6,1140.4z M80.6,1009.7
			c-2.8,0-5.1-2.1-5.4-4.9c-1.6-16.9-2.4-34.1-2.4-51.2c0-4.8,0.1-9.6,0.2-14.5c0.1-3,2.6-5.5,5.6-5.3c3,0.1,5.4,2.6,5.3,5.6
			c-0.1,4.7-0.2,9.5-0.2,14.2c0,16.8,0.8,33.7,2.4,50.2c0.3,3-1.9,5.6-4.9,5.9C80.9,1009.7,80.8,1009.7,80.6,1009.7z M85,872.6
			c-0.3,0-0.6,0-0.9-0.1c-3-0.5-5-3.3-4.5-6.2c3.4-21.7,8.2-43.3,14.1-64.2c0.8-2.9,3.8-4.6,6.7-3.7c2.9,0.8,4.6,3.8,3.7,6.7
			c-5.8,20.5-10.5,41.7-13.9,62.9C90,870.7,87.7,872.6,85,872.6z M123.5,741c-0.7,0-1.5-0.1-2.2-0.5c-2.7-1.2-4-4.4-2.8-7.1
			c8.8-20.1,18.9-39.8,30.1-58.5c1.5-2.6,4.9-3.4,7.4-1.9c2.6,1.5,3.4,4.9,1.9,7.4c-11,18.3-20.9,37.5-29.5,57.2
			C127.6,739.8,125.6,741,123.5,741z M551.9,704.5c-0.1,0-0.1,0-0.2,0c-23.7-0.8-45.7-4.7-65.4-11.7c-2.8-1-4.3-4.1-3.3-6.9
			c1-2.8,4.1-4.3,6.9-3.3c18.7,6.6,39.6,10.3,62.2,11.1c3,0.1,5.3,2.6,5.2,5.6C557.2,702.2,554.8,704.5,551.9,704.5z M621.1,687.5
			c-1.8,0-3.6-0.9-4.6-2.6c-1.6-2.6-0.7-5.9,1.8-7.5c17.3-10.5,31.5-26.2,41.2-45.3c1.3-2.7,4.6-3.7,7.3-2.4
			c2.7,1.4,3.7,4.6,2.4,7.3c-10.6,20.9-26.3,38.1-45.3,49.7C623,687.3,622.1,687.5,621.1,687.5z M427.1,655.3
			c-1.4,0-2.7-0.5-3.8-1.5c-15.2-14.9-28.2-33.1-38.6-54.2c-1.3-2.7-0.2-5.9,2.5-7.3c2.7-1.3,5.9-0.2,7.3,2.5
			c9.9,20,22.1,37.2,36.5,51.3c2.1,2.1,2.2,5.5,0.1,7.7C429.9,654.8,428.5,655.3,427.1,655.3z M194.8,624c-1.2,0-2.4-0.4-3.4-1.2
			c-2.3-1.9-2.7-5.3-0.8-7.6c13.8-16.9,28.8-33.1,44.7-48.2c2.2-2.1,5.6-2,7.7,0.2c2.1,2.2,2,5.6-0.2,7.7
			c-15.6,14.7-30.3,30.6-43.8,47.2C197.9,623.3,196.4,624,194.8,624z M679.1,570c-2.9,0-5.3-2.3-5.4-5.2c-0.9-21.4-6.7-42-16.7-59.6
			c-1.5-2.6-0.6-5.9,2-7.4c2.6-1.5,5.9-0.6,7.4,2c10.9,19.1,17.2,41.4,18.2,64.6c0.1,3-2.2,5.5-5.2,5.7
			C679.3,570,679.2,570,679.1,570z M366.8,534.1c-2.5,0-4.8-1.8-5.3-4.3c-0.9-4.3-1.7-8.7-2.4-13.1c-1.5-8.1-3.1-16-4.8-23.9
			c-0.4,0.7-1,1.3-1.8,1.8c-4.7,2.9-9.4,5.9-14.1,8.9c-14,8.2-27.5,16.9-40.4,26c-2.5,1.7-5.8,1.1-7.6-1.3c-1.7-2.4-1.2-5.8,1.3-7.6
			c13.1-9.3,26.9-18.2,41-26.4c4.5-2.9,9.3-6,14.1-8.9c1.9-1.1,4.1-1,5.9,0.1c-1.4-6.5-2.9-12.9-4.5-19.2c-0.7-2.9,1.1-5.9,4-6.6
			c2.9-0.7,5.8,1.1,6.6,4c4,16.3,7.7,33.5,11,51.2c0.7,4.4,1.5,8.6,2.4,12.8c0.6,2.9-1.3,5.8-4.2,6.4
			C367.5,534.1,367.2,534.1,366.8,534.1z M413.7,461.7c-2.1,0-4.1-1.2-5-3.3c-1.2-2.8,0.1-5.9,2.8-7.1c21.7-9.3,42.9-16.1,63.1-20
			c2.9-0.6,5.8,1.3,6.4,4.3c0.6,2.9-1.3,5.8-4.3,6.4c-19.4,3.8-39.8,10.3-60.8,19.3C415.1,461.6,414.4,461.7,413.7,461.7z
			 M609.3,459.8c-0.8,0-1.7-0.2-2.4-0.6l-2-1c-18.7-9.3-38.2-15.5-58-18.4c-3-0.4-5-3.2-4.6-6.2c0.4-3,3.2-5,6.2-4.6
			c21,3.1,41.6,9.6,61.3,19.4l2,1c2.7,1.4,3.8,4.6,2.4,7.3C613.2,458.7,611.3,459.8,609.3,459.8z M332.8,401.1
			c-2.2,0-4.3-1.4-5.1-3.5c-8.9-24.2-18.3-43.4-28-57c-1.7-2.4-1.2-5.8,1.3-7.6c2.4-1.7,5.8-1.2,7.6,1.3
			c10.2,14.4,20.1,34.5,29.3,59.5c1,2.8-0.4,5.9-3.2,7C334.1,401,333.4,401.1,332.8,401.1z"/>
	</g>
	<g>
		<polygon fill="#FFFFFF" points="439.6,229.2 129.6,59.5 335.6,288.8 		"/>
		<polygon fill="#E6E6E6" points="129.6,59.5 289.5,315.2 322.6,368.2 335.6,288.8 		"/>
		<polygon fill="#F0F0F0" points="289.5,315.2 129.6,59.5 254.1,335.5 322.6,368.2 		"/>
		<polygon fill="#FFFFFF" points="129.6,59.5 168.8,384.4 254.1,335.5 254.1,335.5 		"/>
	</g>
	<polygon fill="#FFD553" points="736.1,949.1 651.8,962.8 669.1,980.3 533.2,1116.2 461.7,1044.8 289.8,1131.7 312.7,1176.9 
		451.9,1106.5 533.2,1187.9 704.6,1016.5 721.3,1033.4 	"/>
	<path fill="#FF9F6B" d="M350.1,1163.3c0,36.2-29.3,65.5-65.5,65.5c-36.2,0-65.5-29.3-65.5-65.5c0-36.2,29.3-65.5,65.5-65.5
		C320.7,1097.8,350.1,1127.2,350.1,1163.3z"/>
	<path fill="#FFFFFF" d="M317.5,1163.3c0,18.2-14.8,33-33,33c-18.2,0-32.9-14.8-32.9-33c0-18.2,14.8-32.9,32.9-32.9
		C302.8,1130.4,317.5,1145.1,317.5,1163.3z"/>
	<rect x="626" y="1201.7" fill="#F1F2F2" width="117" height="78.6"/>
	<rect x="795.8" y="1201.7" fill="#F1F2F2" width="117" height="78.6"/>
	<rect x="960.1" y="1201.7" fill="#F1F2F2" width="259.3" height="78.6"/>
</g>
</svg>
